<svg width="32" height="32" viewBox="0 0 32 32" fill="none" xmlns="http://www.w3.org/2000/svg">
<path d="M16.0001 10.6667L21.0725 14.3519L16.0001 10.6667ZM16.0001 10.6667L10.9278 14.3519L16.0001 10.6667ZM16.0001 10.6667V6.66675V10.6667ZM21.0725 14.3519L19.135 20.3149L21.0725 14.3519ZM21.0725 14.3519L24.6667 12.6667L21.0725 14.3519ZM19.135 20.3149H12.8653H19.135ZM19.135 20.3149L21.3334 23.3334L19.135 20.3149ZM12.8653 20.3149L10.9278 14.3519L12.8653 20.3149ZM12.8653 20.3149L10.6667 23.3334L12.8653 20.3149ZM10.9278 14.3519L7.33341 12.6667L10.9278 14.3519ZM7.33341 12.6667L2.73259 17.3334L7.33341 12.6667ZM7.33341 12.6667L6.00008 7.18067L7.33341 12.6667ZM24.6667 12.6667L29.2675 17.3334L24.6667 12.6667ZM24.6667 12.6667L26.0001 7.18067L24.6667 12.6667ZM16.0001 6.66675L11.4992 3.44553L16.0001 6.66675ZM16.0001 6.66675L20.501 3.44553L16.0001 6.66675ZM10.6667 23.3334L4.45051 22.6667L10.6667 23.3334ZM10.6667 23.3334L14.0001 29.1845L10.6667 23.3334ZM21.3334 23.3334L27.5497 22.6667L21.3334 23.3334ZM21.3334 23.3334L18.0001 29.1845L21.3334 23.3334ZM29.3334 16.0001C29.3334 23.3638 23.3638 29.3334 16.0001 29.3334C8.63628 29.3334 2.66675 23.3638 2.66675 16.0001C2.66675 8.63628 8.63628 2.66675 16.0001 2.66675C23.3638 2.66675 29.3334 8.63628 29.3334 16.0001Z" stroke="#65BBF4" stroke-width="2" stroke-linecap="round" stroke-linejoin="round"/>
</svg>
