<svg width="32" height="32" viewBox="0 0 32 32" fill="none" xmlns="http://www.w3.org/2000/svg">
<path d="M16.0001 2.66675C8.63628 2.66675 2.66675 8.63628 2.66675 16.0001C2.66675 23.3638 8.63628 29.3334 16.0001 29.3334C23.3638 29.3334 29.3334 23.3638 29.3334 16.0001C29.3334 8.63628 23.3638 2.66675 16.0001 2.66675Z" stroke="#7965F4" stroke-width="2" stroke-linecap="round" stroke-linejoin="round"/>
<path d="M5.69458 24.461C5.69458 24.461 8.66661 20.6667 15.9999 20.6667C23.3332 20.6667 26.3054 24.461 26.3054 24.461" stroke="#7965F4" stroke-width="2" stroke-linecap="round" stroke-linejoin="round"/>
<path d="M16 16C18.2092 16 20 14.2092 20 12C20 9.79087 18.2092 8 16 8C13.7908 8 12 9.79087 12 12C12 14.2092 13.7908 16 16 16Z" stroke="#7965F4" stroke-width="2" stroke-linecap="round" stroke-linejoin="round"/>
</svg>
