<svg width="32" height="32" viewBox="0 0 32 32" fill="none" xmlns="http://www.w3.org/2000/svg">
<path d="M16 10.6667L21.0724 14.3519L16 10.6667ZM16 10.6667L10.9277 14.3519L16 10.6667ZM16 10.6667V6.66666V10.6667ZM21.0724 14.3519L19.1349 20.3148L21.0724 14.3519ZM21.0724 14.3519L24.6666 12.6667L21.0724 14.3519ZM19.1349 20.3148H12.8651H19.1349ZM19.1349 20.3148L21.3333 23.3333L19.1349 20.3148ZM12.8651 20.3148L10.9277 14.3519L12.8651 20.3148ZM12.8651 20.3148L10.6666 23.3333L12.8651 20.3148ZM10.9277 14.3519L7.33329 12.6667L10.9277 14.3519ZM7.33329 12.6667L2.73247 17.3333L7.33329 12.6667ZM7.33329 12.6667L5.99996 7.18058L7.33329 12.6667ZM24.6666 12.6667L29.2674 17.3333L24.6666 12.6667ZM24.6666 12.6667L26 7.18058L24.6666 12.6667ZM16 6.66666L11.4991 3.44544L16 6.66666ZM16 6.66666L20.5009 3.44544L16 6.66666ZM10.6666 23.3333L4.45039 22.6667L10.6666 23.3333ZM10.6666 23.3333L14 29.1844L10.6666 23.3333ZM21.3333 23.3333L27.5496 22.6667L21.3333 23.3333ZM21.3333 23.3333L18 29.1844L21.3333 23.3333ZM29.3333 16C29.3333 23.3637 23.3637 29.3333 16 29.3333C8.63616 29.3333 2.66663 23.3637 2.66663 16C2.66663 8.63619 8.63616 2.66666 16 2.66666C23.3637 2.66666 29.3333 8.63619 29.3333 16Z" stroke="#72F6AB" stroke-width="2" stroke-linecap="round" stroke-linejoin="round"/>
</svg>
