<svg width="32" height="32" viewBox="0 0 32 32" fill="none" xmlns="http://www.w3.org/2000/svg">
<path d="M16.0001 29.3333C23.3638 29.3333 29.3334 23.3637 29.3334 16C29.3334 8.63619 23.3638 2.66666 16.0001 2.66666C8.63628 2.66666 2.66675 8.63619 2.66675 16C2.66675 23.3637 8.63628 29.3333 16.0001 29.3333Z" stroke="#918FF6" stroke-width="2" stroke-linecap="round" stroke-linejoin="round"/>
<path d="M16 21.8547V24.6667M20 11.3333C19.0867 10.42 17.4783 9.78474 16 9.74497L20 11.3333ZM12 20C12.8593 21.1457 14.4571 21.7992 16 21.8547L12 20ZM16 9.74497C14.2412 9.69764 12.6667 10.4933 12.6667 12.6667C12.6667 16.6667 20 14.6667 20 18.6667C20 20.948 18.0483 21.9283 16 21.8547V9.74497ZM16 9.74497V7.33334V9.74497Z" stroke="#918FF6" stroke-width="2" stroke-linecap="round" stroke-linejoin="round"/>
</svg>
