<svg width="14" height="14" viewBox="0 0 14 14" fill="none" xmlns="http://www.w3.org/2000/svg">
<path fill-rule="evenodd" clip-rule="evenodd" d="M7.00058 0.801758C5.26242 0.801758 5.04429 0.809358 4.36161 0.840425C3.68027 0.871625 3.2152 0.979493 2.80827 1.13776C2.38733 1.30123 2.03026 1.5199 1.67452 1.87577C1.31852 2.23151 1.09985 2.58858 0.935846 3.00938C0.777177 3.41645 0.669176 3.88166 0.638509 4.56273C0.607976 5.2454 0.599976 5.46367 0.599976 7.20182C0.599976 8.93997 0.607709 9.15744 0.638643 9.84012C0.669976 10.5215 0.777844 10.9865 0.935979 11.3935C1.09958 11.8144 1.31825 12.1715 1.67412 12.5272C2.02972 12.8832 2.38679 13.1024 2.80747 13.2659C3.21467 13.4242 3.67987 13.532 4.36108 13.5632C5.04376 13.5943 5.26176 13.6019 6.99978 13.6019C8.73806 13.6019 8.95553 13.5943 9.6382 13.5632C10.3195 13.532 10.7851 13.4242 11.1924 13.2659C11.6132 13.1024 11.9697 12.8832 12.3253 12.5272C12.6813 12.1715 12.9 11.8144 13.064 11.3936C13.2213 10.9865 13.3293 10.5213 13.3613 9.84025C13.392 9.15758 13.4 8.93997 13.4 7.20182C13.4 5.46367 13.392 5.24554 13.3613 4.56286C13.3293 3.88152 13.2213 3.41645 13.064 3.00951C12.9 2.58858 12.6813 2.23151 12.3253 1.87577C11.9693 1.51977 11.6133 1.3011 11.192 1.13776C10.7839 0.979493 10.3186 0.871625 9.63727 0.840425C8.9546 0.809358 8.73726 0.801758 6.99858 0.801758H7.00058ZM6.42641 1.95509C6.59681 1.95482 6.78695 1.95509 7.00055 1.95509C8.70937 1.95509 8.9119 1.96122 9.58671 1.99189C10.2107 2.02042 10.5494 2.12469 10.775 2.21229C11.0737 2.32829 11.2866 2.46696 11.5105 2.69096C11.7345 2.91496 11.8731 3.1283 11.9894 3.42697C12.077 3.6523 12.1814 3.99097 12.2098 4.61498C12.2405 5.28965 12.2471 5.49232 12.2471 7.20034C12.2471 8.90836 12.2405 9.11103 12.2098 9.7857C12.1813 10.4097 12.077 10.7484 11.9894 10.9737C11.8734 11.2724 11.7345 11.4851 11.5105 11.7089C11.2865 11.9329 11.0738 12.0716 10.775 12.1876C10.5497 12.2756 10.2107 12.3796 9.58671 12.4081C8.91203 12.4388 8.70937 12.4455 7.00055 12.4455C5.2916 12.4455 5.08906 12.4388 4.41439 12.4081C3.79038 12.3793 3.45171 12.2751 3.22598 12.1875C2.92731 12.0715 2.71397 11.9328 2.48997 11.7088C2.26597 11.4848 2.1273 11.272 2.01103 10.9732C1.92343 10.7478 1.81903 10.4092 1.79063 9.78517C1.75996 9.11049 1.75383 8.90782 1.75383 7.19874C1.75383 5.48966 1.75996 5.28805 1.79063 4.61338C1.81916 3.98937 1.92343 3.6507 2.01103 3.4251C2.12703 3.12643 2.26597 2.91309 2.48997 2.68909C2.71397 2.46509 2.92731 2.32642 3.22598 2.21015C3.45158 2.12215 3.79038 2.01815 4.41439 1.98949C5.00479 1.96282 5.2336 1.95482 6.42641 1.95349V1.95509ZM10.4169 3.01777C9.99285 3.01777 9.64885 3.36137 9.64885 3.78551C9.64885 4.20951 9.99285 4.55351 10.4169 4.55351C10.8409 4.55351 11.1849 4.20951 11.1849 3.78551C11.1849 3.3615 10.8409 3.01777 10.4169 3.01777ZM7.00059 3.91511C5.1855 3.91511 3.71389 5.38672 3.71389 7.20181C3.71389 9.01689 5.1855 10.4878 7.00059 10.4878C8.81567 10.4878 10.2868 9.01689 10.2868 7.20181C10.2868 5.38672 8.81567 3.91511 7.00059 3.91511ZM7.00056 5.06845C8.17871 5.06845 9.13392 6.02353 9.13392 7.20181C9.13392 8.37995 8.17871 9.33516 7.00056 9.33516C5.82228 9.33516 4.86721 8.37995 4.86721 7.20181C4.86721 6.02353 5.82228 5.06845 7.00056 5.06845Z" fill="#F4F5F7"/>
</svg>
