<svg width="156" height="56" viewBox="0 0 156 56" fill="none" xmlns="http://www.w3.org/2000/svg">
<path d="M13.5443 36.3628C10.608 36.3628 8.04721 35.9189 5.86203 35.0312C3.71099 34.1435 2.08917 32.9314 0.996582 31.3949L5.24744 27.4514C6.27175 28.5781 7.46677 29.4658 8.83251 30.1145C10.2324 30.7291 11.8201 31.0364 13.5955 31.0364C15.0978 31.0364 16.2758 30.8145 17.1294 30.3706C17.983 29.8926 18.4098 29.1756 18.4098 28.2196C18.4098 27.4684 18.1195 26.9563 17.5391 26.6831C16.9587 26.3758 16.1563 26.1368 15.132 25.9661L10.8811 25.3003C9.6861 25.1296 8.57643 24.8735 7.55213 24.5321C6.52782 24.1565 5.64009 23.6614 4.88894 23.0468C4.13778 22.4323 3.54027 21.6811 3.09641 20.7934C2.65254 19.9056 2.43061 18.8301 2.43061 17.5668C2.43061 14.8012 3.48906 12.6331 5.60595 11.0625C7.72285 9.49189 10.6933 8.70659 14.5174 8.70659C17.1123 8.70659 19.3146 9.06509 21.1242 9.78211C22.9679 10.465 24.4361 11.4551 25.5287 12.7526L21.7387 17.0547C20.9534 16.2011 19.9462 15.4841 18.717 14.9036C17.4879 14.3232 16.0026 14.033 14.2613 14.033C11.325 14.033 9.85681 14.9207 9.85681 16.6962C9.85681 17.4815 10.147 18.0278 10.7275 18.335C11.3079 18.6082 12.1103 18.8301 13.1346 19.0008L17.3342 19.6666C18.5293 19.8374 19.6389 20.1105 20.6632 20.4861C21.6875 20.8275 22.5753 21.3055 23.3264 21.9201C24.1117 22.5347 24.7263 23.2859 25.1702 24.1736C25.614 25.0613 25.836 26.1368 25.836 27.4001C25.836 30.1658 24.7604 32.3509 22.6094 33.9557C20.4925 35.5604 17.4708 36.3628 13.5443 36.3628Z" fill="#6153E1"/>
<path d="M33.2422 9.32117H40.822V14.1354H41.1805C41.8292 12.5648 42.7682 11.2673 43.9974 10.243C45.2265 9.21874 46.8995 8.70659 49.0164 8.70659C50.4846 8.70659 51.8162 8.97973 53.0112 9.52603C54.2404 10.0723 55.2818 10.9088 56.1354 12.0356C57.0231 13.1623 57.706 14.5963 58.184 16.3377C58.6961 18.079 58.9522 20.1447 58.9522 22.5347C58.9522 24.9247 58.6961 26.9904 58.184 28.7317C57.706 30.4731 57.0231 31.9071 56.1354 33.0338C55.2818 34.1605 54.2404 34.9971 53.0112 35.5434C51.8162 36.0897 50.4846 36.3628 49.0164 36.3628C46.8995 36.3628 45.2265 35.8677 43.9974 34.8776C42.7682 33.8533 41.8292 32.5387 41.1805 30.934H40.822V54.7939C36.6358 54.7939 33.2422 51.4003 33.2422 47.214V9.32117ZM45.7387 30.4731C47.4458 30.4731 48.7604 29.9609 49.6822 28.9366C50.6041 27.8781 51.0651 26.4271 51.0651 24.5833V20.4861C51.0651 18.6423 50.6041 17.2083 49.6822 16.184C48.7604 15.1256 47.4458 14.5963 45.7387 14.5963C44.4071 14.5963 43.2462 14.9207 42.256 15.5694C41.3 16.2182 40.822 17.2425 40.822 18.6423V26.427C40.822 27.8269 41.3 28.8512 42.256 29.5C43.2462 30.1487 44.4071 30.4731 45.7387 30.4731Z" fill="#6153E1"/>
<path d="M77.3184 36.3628C75.2698 36.3628 73.4261 36.0555 71.7872 35.4409C70.1483 34.7922 68.7484 33.8703 67.5876 32.6753C66.4608 31.4803 65.5902 30.0292 64.9756 28.322C64.361 26.6148 64.0537 24.6857 64.0537 22.5347C64.0537 20.3837 64.361 18.4545 64.9756 16.7474C65.5902 15.0402 66.4608 13.5891 67.5876 12.3941C68.7484 11.1991 70.1483 10.2943 71.7872 9.67968C73.4261 9.03095 75.2698 8.70659 77.3184 8.70659C79.3671 8.70659 81.2108 9.03095 82.8497 9.67968C84.4886 10.2943 85.8714 11.1991 86.9981 12.3941C88.159 13.5891 89.0467 15.0402 89.6613 16.7474C90.2759 18.4545 90.5832 20.3837 90.5832 22.5347C90.5832 24.6857 90.2759 26.6148 89.6613 28.322C89.0467 30.0292 88.159 31.4803 86.9981 32.6753C85.8714 33.8703 84.4886 34.7922 82.8497 35.4409C81.2108 36.0555 79.3671 36.3628 77.3184 36.3628ZM77.3184 30.7291C79.0256 30.7291 80.3572 30.1999 81.3132 29.1415C82.2692 28.083 82.7473 26.5807 82.7473 24.6345V20.4349C82.7473 18.4887 82.2692 16.9864 81.3132 15.9279C80.3572 14.8695 79.0256 14.3403 77.3184 14.3403C75.6113 14.3403 74.2797 14.8695 73.3237 15.9279C72.3676 16.9864 71.8896 18.4887 71.8896 20.4349V24.6345C71.8896 26.5807 72.3676 28.083 73.3237 29.1415C74.2797 30.1999 75.6113 30.7291 77.3184 30.7291Z" fill="#6153E1"/>
<path d="M97.4772 29.8585H103.572V15.2109H97.4772V9.32117H111.152V16.7986H111.51C111.749 15.8426 112.074 14.9207 112.483 14.033C112.927 13.1111 113.473 12.3087 114.122 11.6259C114.805 10.9088 115.624 10.3455 116.581 9.93575C117.537 9.52603 118.663 9.32117 119.961 9.32117H122.47V16.2864H116.837C114.959 16.2864 113.542 16.8498 112.586 17.9765C111.63 19.0691 111.152 20.4178 111.152 22.0225V29.8585H119.858V35.7482H97.4772V29.8585Z" fill="#6153E1"/>
<path d="M142.834 35.7482C140.102 35.7482 138.071 35.0312 136.739 33.5972C135.408 32.1632 134.742 30.3365 134.742 28.1172V15.2109H127.572V9.32117H132.232C133.359 9.32117 134.161 9.09924 134.639 8.65537C135.117 8.2115 135.356 7.39206 135.356 6.19704V0H142.322V9.32117H152.616V15.2109H142.322V29.8585H152.616V35.7482H142.834Z" fill="#6153E1"/>
<path d="M52.5093 43.2922C51.9758 43.2922 51.6024 43.1855 51.389 42.9721C51.1863 42.748 51.0849 42.4813 51.0849 42.1719V41.7077C51.0849 41.3876 51.1863 41.1209 51.389 40.9075C51.6024 40.6941 51.9758 40.5874 52.5093 40.5874C53.0428 40.5874 53.4109 40.6941 53.6137 40.9075C53.8271 41.1209 53.9338 41.3876 53.9338 41.7077V42.1719C53.9338 42.4813 53.8271 42.748 53.6137 42.9721C53.4109 43.1855 53.0428 43.2922 52.5093 43.2922ZM48.7002 50.7664H51.325V46.1891H48.7002V44.3485H53.6937V50.7664H56.1264V52.607H48.7002V50.7664Z" fill="#0C0E12"/>
<path d="M60.5535 52.607V44.3485H62.9222V45.853H63.0182C63.1142 45.6182 63.2316 45.3995 63.3703 45.1968C63.509 44.994 63.6744 44.818 63.8664 44.6686C64.0692 44.5086 64.2986 44.3859 64.5547 44.3005C64.8214 44.2045 65.1202 44.1565 65.4509 44.1565C65.8457 44.1565 66.2085 44.2258 66.5392 44.3645C66.87 44.4926 67.1528 44.69 67.3875 44.9567C67.6222 45.2234 67.8036 45.5489 67.9317 45.933C68.0704 46.3171 68.1397 46.7599 68.1397 47.2614V52.607H65.771V47.5815C65.771 46.5145 65.3069 45.981 64.3786 45.981C64.1972 45.981 64.0158 46.0077 63.8344 46.061C63.6637 46.1037 63.509 46.1784 63.3703 46.2851C63.2316 46.3811 63.1196 46.5038 63.0342 46.6532C62.9595 46.8026 62.9222 46.9786 62.9222 47.1814V52.607H60.5535Z" fill="#0C0E12"/>
<path d="M75.2236 52.607L72.2627 44.3485H74.7594L75.8317 47.8856L76.616 50.6384H76.744L77.5283 47.8856L78.6006 44.3485H81.0013L78.0404 52.607H75.2236Z" fill="#0C0E12"/>
<path d="M89.1735 52.799C87.7864 52.799 86.7354 52.4149 86.0205 51.6467C85.3056 50.8785 84.9482 49.8328 84.9482 48.5098C84.9482 47.8376 85.0389 47.2347 85.2203 46.7012C85.4123 46.1571 85.6791 45.6983 86.0205 45.3248C86.3726 44.9407 86.7941 44.6526 87.2849 44.4606C87.7864 44.2578 88.3465 44.1565 88.9654 44.1565C89.5843 44.1565 90.1391 44.2578 90.6299 44.4606C91.1207 44.6526 91.5368 44.93 91.8783 45.2928C92.2197 45.6556 92.4811 46.0984 92.6625 46.6212C92.8546 47.1333 92.9506 47.7095 92.9506 48.3497V49.0539H87.3009V49.198C87.3009 49.7315 87.4663 50.1636 87.7971 50.4943C88.1278 50.8144 88.6133 50.9745 89.2535 50.9745C89.7443 50.9745 90.1658 50.8838 90.5179 50.7024C90.87 50.5104 91.1741 50.2596 91.4301 49.9502L92.7105 51.3426C92.3904 51.7374 91.9423 52.0788 91.3661 52.3669C90.7899 52.655 90.0591 52.799 89.1735 52.799ZM88.9814 45.853C88.4693 45.853 88.0585 46.013 87.749 46.3331C87.4503 46.6425 87.3009 47.064 87.3009 47.5975V47.7255H90.6299V47.5975C90.6299 47.0533 90.4805 46.6265 90.1818 46.3171C89.8937 46.0077 89.4936 45.853 88.9814 45.853Z" fill="#0C0E12"/>
<path d="M101.171 52.799C100.253 52.799 99.4529 52.6603 98.7701 52.3829C98.0979 52.1055 97.591 51.7267 97.2496 51.2466L98.578 50.0142C98.8981 50.3663 99.2715 50.6437 99.6983 50.8465C100.136 51.0385 100.632 51.1345 101.187 51.1345C101.656 51.1345 102.024 51.0652 102.291 50.9265C102.558 50.7771 102.691 50.553 102.691 50.2543C102.691 50.0195 102.601 49.8595 102.419 49.7741C102.238 49.6781 101.987 49.6034 101.667 49.5501L100.339 49.342C99.9651 49.2887 99.6183 49.2086 99.2982 49.1019C98.9781 48.9846 98.7007 48.8299 98.466 48.6378C98.2312 48.4457 98.0445 48.211 97.9058 47.9336C97.7671 47.6562 97.6977 47.3201 97.6977 46.9253C97.6977 46.061 98.0285 45.3835 98.69 44.8927C99.3516 44.4019 100.28 44.1565 101.475 44.1565C102.286 44.1565 102.974 44.2685 103.539 44.4926C104.116 44.706 104.574 45.0154 104.916 45.4208L103.732 46.7652C103.486 46.4985 103.171 46.2744 102.787 46.093C102.403 45.9117 101.939 45.821 101.395 45.821C100.477 45.821 100.018 46.0984 100.018 46.6532C100.018 46.8986 100.109 47.0693 100.291 47.1654C100.472 47.2507 100.723 47.3201 101.043 47.3734L102.355 47.5815C102.729 47.6348 103.075 47.7202 103.395 47.8376C103.716 47.9443 103.993 48.0936 104.228 48.2857C104.473 48.4777 104.665 48.7125 104.804 48.9899C104.943 49.2673 105.012 49.6034 105.012 49.9982C105.012 50.8625 104.676 51.5453 104.004 52.0468C103.342 52.5483 102.398 52.799 101.171 52.799Z" fill="#0C0E12"/>
<path d="M114.224 52.607C113.371 52.607 112.736 52.3829 112.32 51.9348C111.904 51.4866 111.696 50.9158 111.696 50.2223V46.1891H109.455V44.3485H110.911C111.264 44.3485 111.514 44.2792 111.664 44.1405C111.813 44.0018 111.888 43.7457 111.888 43.3722V41.4357H114.064V44.3485H117.281V46.1891H114.064V50.7664H117.281V52.607H114.224Z" fill="#0C0E12"/>
<path d="M126.414 43.2922C125.88 43.2922 125.507 43.1855 125.293 42.9721C125.091 42.748 124.989 42.4813 124.989 42.1719V41.7077C124.989 41.3876 125.091 41.1209 125.293 40.9075C125.507 40.6941 125.88 40.5874 126.414 40.5874C126.947 40.5874 127.315 40.6941 127.518 40.9075C127.731 41.1209 127.838 41.3876 127.838 41.7077V42.1719C127.838 42.4813 127.731 42.748 127.518 42.9721C127.315 43.1855 126.947 43.2922 126.414 43.2922ZM122.605 50.7664H125.229V46.1891H122.605V44.3485H127.598V50.7664H130.031V52.607H122.605V50.7664Z" fill="#0C0E12"/>
<path d="M134.458 52.607V44.3485H136.827V45.853H136.923C137.019 45.6182 137.136 45.3995 137.275 45.1968C137.413 44.994 137.579 44.818 137.771 44.6686C137.974 44.5086 138.203 44.3859 138.459 44.3005C138.726 44.2045 139.025 44.1565 139.355 44.1565C139.75 44.1565 140.113 44.2258 140.444 44.3645C140.774 44.4926 141.057 44.69 141.292 44.9567C141.527 45.2234 141.708 45.5489 141.836 45.933C141.975 46.3171 142.044 46.7599 142.044 47.2614V52.607H139.675V47.5815C139.675 46.5145 139.211 45.981 138.283 45.981C138.102 45.981 137.92 46.0077 137.739 46.061C137.568 46.1037 137.413 46.1784 137.275 46.2851C137.136 46.3811 137.024 46.5038 136.939 46.6532C136.864 46.8026 136.827 46.9786 136.827 47.1814V52.607H134.458Z" fill="#0C0E12"/>
<path d="M155.066 53.4392C155.066 54.3141 154.698 54.9597 153.961 55.3758C153.225 55.7919 152.068 56 150.488 56C149.699 56 149.048 55.952 148.536 55.8559C148.024 55.7706 147.613 55.6425 147.303 55.4718C147.005 55.3011 146.791 55.0984 146.663 54.8636C146.546 54.6289 146.487 54.3728 146.487 54.0954C146.487 53.6259 146.626 53.2685 146.903 53.0231C147.181 52.7884 147.57 52.607 148.072 52.4789V52.3829C147.72 52.2762 147.437 52.1268 147.223 51.9348C147.021 51.732 146.919 51.4493 146.919 51.0865C146.919 50.6811 147.053 50.3823 147.319 50.1903C147.597 49.9982 147.96 49.8488 148.408 49.7421V49.6461C147.917 49.4114 147.533 49.0806 147.255 48.6538C146.989 48.227 146.855 47.7095 146.855 47.1013C146.855 46.6212 146.941 46.1997 147.111 45.837C147.282 45.4635 147.522 45.1541 147.832 44.9087C148.152 44.6633 148.53 44.4766 148.968 44.3485C149.405 44.2205 149.896 44.1565 150.44 44.1565C150.963 44.1565 151.449 44.2151 151.897 44.3325V43.8844C151.897 43.5643 152.009 43.2975 152.233 43.0841C152.457 42.8707 152.766 42.764 153.161 42.764H154.618V44.4926H152.633V44.6366C153.081 44.8713 153.428 45.1968 153.673 45.6129C153.929 46.0184 154.057 46.5145 154.057 47.1013C154.057 47.5815 153.972 48.0029 153.801 48.3657C153.631 48.7285 153.385 49.0379 153.065 49.294C152.745 49.5394 152.361 49.7261 151.913 49.8542C151.475 49.9822 150.985 50.0462 150.44 50.0462C150.195 50.0462 149.96 50.0355 149.736 50.0142C149.512 49.9822 149.299 49.9395 149.096 49.8862C148.979 49.9502 148.877 50.0302 148.792 50.1262C148.717 50.2223 148.68 50.345 148.68 50.4943C148.68 50.6224 148.712 50.7237 148.776 50.7984C148.84 50.8731 148.925 50.9318 149.032 50.9745C149.149 51.0065 149.283 51.0278 149.432 51.0385C149.581 51.0492 149.736 51.0545 149.896 51.0545H151.785C152.372 51.0545 152.873 51.1132 153.289 51.2306C153.705 51.3479 154.047 51.5133 154.314 51.7267C154.58 51.9401 154.772 52.1909 154.89 52.4789C155.007 52.767 155.066 53.0871 155.066 53.4392ZM152.825 53.6153C152.825 53.4019 152.74 53.2312 152.569 53.1031C152.398 52.9858 152.073 52.9271 151.593 52.9271H148.76C148.547 53.1085 148.44 53.3325 148.44 53.5993C148.44 53.8553 148.547 54.0634 148.76 54.2235C148.984 54.3942 149.357 54.4795 149.88 54.4795H151.273C151.817 54.4795 152.212 54.4048 152.457 54.2555C152.702 54.1061 152.825 53.8927 152.825 53.6153ZM150.44 48.5418C150.921 48.5418 151.267 48.4244 151.481 48.1897C151.705 47.9549 151.817 47.6562 151.817 47.2934V46.9093C151.817 46.5465 151.705 46.2478 151.481 46.013C151.267 45.7783 150.921 45.6609 150.44 45.6609C149.971 45.6609 149.63 45.7783 149.416 46.013C149.203 46.2478 149.096 46.5465 149.096 46.9093V47.2934C149.096 47.6562 149.203 47.9549 149.416 48.1897C149.63 48.4244 149.971 48.5418 150.44 48.5418Z" fill="#0C0E12"/>
</svg>
