<svg width="93" height="35" viewBox="0 0 93 35" fill="none" xmlns="http://www.w3.org/2000/svg">
<path d="M7.70127 22.2449C5.93146 22.2449 4.38803 21.9774 3.07096 21.4424C1.77447 20.9073 0.796961 20.1767 0.138428 19.2507L2.70053 16.8738C3.31791 17.5529 4.03818 18.0879 4.86135 18.479C5.70509 18.8494 6.66203 19.0346 7.73214 19.0346C8.63763 19.0346 9.34761 18.9008 9.86209 18.6333C10.3766 18.3452 10.6338 17.913 10.6338 17.3368C10.6338 16.8841 10.4589 16.5754 10.109 16.4107C9.75919 16.2255 9.27558 16.0815 8.65821 15.9786L6.0961 15.5773C5.37583 15.4744 4.707 15.3201 4.08963 15.1143C3.47225 14.8879 2.9372 14.5895 2.48445 14.2191C2.03171 13.8486 1.67158 13.3959 1.40405 12.8608C1.13652 12.3258 1.00275 11.6775 1.00275 10.9161C1.00275 9.2492 1.64071 7.94242 2.91662 6.99578C4.19252 6.04913 5.98291 5.57581 8.28778 5.57581C9.8518 5.57581 11.1792 5.7919 12.2699 6.22406C13.3811 6.63564 14.266 7.23244 14.9246 8.01444L12.6403 10.6074C12.167 10.0929 11.5599 9.66078 10.819 9.31093C10.0782 8.96109 9.18297 8.78616 8.13344 8.78616C6.36363 8.78616 5.47872 9.32122 5.47872 10.3913C5.47872 10.8647 5.65365 11.1939 6.00349 11.3791C6.35334 11.5438 6.83695 11.6775 7.45432 11.7804L9.98556 12.1817C10.7058 12.2846 11.3747 12.4493 11.992 12.6756C12.6094 12.8814 13.1445 13.1695 13.5972 13.54C14.0705 13.9104 14.441 14.3631 14.7085 14.8982C14.976 15.4332 15.1098 16.0815 15.1098 16.8429C15.1098 18.5098 14.4615 19.8269 13.165 20.7941C11.8891 21.7613 10.0679 22.2449 7.70127 22.2449Z" fill="#FFCA36"/>
<path d="M19.5737 5.94624H24.1423V8.8479H24.3583C24.7493 7.90126 25.3153 7.11925 26.0561 6.50188C26.797 5.8845 27.8054 5.57581 29.0813 5.57581C29.9662 5.57581 30.7688 5.74045 31.489 6.06971C32.2299 6.39898 32.8575 6.90317 33.372 7.58228C33.9071 8.2614 34.3187 9.12572 34.6068 10.1753C34.9155 11.2248 35.0698 12.4698 35.0698 13.9104C35.0698 15.3509 34.9155 16.596 34.6068 17.6455C34.3187 18.695 33.9071 19.5594 33.372 20.2385C32.8575 20.9176 32.2299 21.4218 31.489 21.751C30.7688 22.0803 29.9662 22.2449 29.0813 22.2449C27.8054 22.2449 26.797 21.9465 26.0561 21.3497C25.3153 20.7324 24.7493 19.9401 24.3583 18.9729H24.1423V33.3538H23.9146C21.5172 33.3538 19.5737 31.4103 19.5737 29.0129V5.94624ZM27.1057 18.695C28.1346 18.695 28.9269 18.3863 29.4826 17.769C30.0382 17.131 30.316 16.2564 30.316 15.1451V12.6756C30.316 11.5644 30.0382 10.7 29.4826 10.0827C28.9269 9.4447 28.1346 9.12572 27.1057 9.12572C26.3031 9.12572 25.6034 9.32122 25.0066 9.71223C24.4304 10.1032 24.1423 10.7206 24.1423 11.5644V16.2564C24.1423 17.1001 24.4304 17.7175 25.0066 18.1085C25.6034 18.4995 26.3031 18.695 27.1057 18.695Z" fill="#FFCA36"/>
<path d="M46.1396 22.2449C44.9049 22.2449 43.7936 22.0597 42.8058 21.6893C41.818 21.2983 40.9743 20.7427 40.2746 20.0224C39.5955 19.3021 39.0707 18.4275 38.7003 17.3985C38.3298 16.3696 38.1446 15.2069 38.1446 13.9104C38.1446 12.6139 38.3298 11.4512 38.7003 10.4222C39.0707 9.39325 39.5955 8.51863 40.2746 7.79836C40.9743 7.07809 41.818 6.53274 42.8058 6.16232C43.7936 5.77132 44.9049 5.57581 46.1396 5.57581C47.3744 5.57581 48.4857 5.77132 49.4735 6.16232C50.4613 6.53274 51.2947 7.07809 51.9738 7.79836C52.6735 8.51863 53.2086 9.39325 53.579 10.4222C53.9494 11.4512 54.1346 12.6139 54.1346 13.9104C54.1346 15.2069 53.9494 16.3696 53.579 17.3985C53.2086 18.4275 52.6735 19.3021 51.9738 20.0224C51.2947 20.7427 50.4613 21.2983 49.4735 21.6893C48.4857 22.0597 47.3744 22.2449 46.1396 22.2449ZM46.1396 18.8494C47.1686 18.8494 47.9712 18.5304 48.5474 17.8924C49.1236 17.2545 49.4117 16.349 49.4117 15.176V12.6448C49.4117 11.4717 49.1236 10.5663 48.5474 9.92831C47.9712 9.29035 47.1686 8.97138 46.1396 8.97138C45.1107 8.97138 44.3081 9.29035 43.7319 9.92831C43.1556 10.5663 42.8675 11.4717 42.8675 12.6448V15.176C42.8675 16.349 43.1556 17.2545 43.7319 17.8924C44.3081 18.5304 45.1107 18.8494 46.1396 18.8494Z" fill="#FFCA36"/>
<path d="M58.2899 18.3246H61.9632V9.49615H58.2899V5.94624H66.5318V10.4531H66.7479C66.892 9.87686 67.0875 9.32122 67.3344 8.78616C67.6019 8.23053 67.9312 7.74692 68.3222 7.33533C68.7338 6.90317 69.2277 6.56361 69.8039 6.31666C70.3801 6.06971 71.0592 5.94624 71.8412 5.94624H73.3538V10.1444H69.9583C68.8264 10.1444 67.9724 10.4839 67.3961 11.1631C66.8199 11.8216 66.5318 12.6345 66.5318 13.6017V18.3246H71.7795V21.8745H58.2899V18.3246Z" fill="#FFCA36"/>
<path d="M85.6275 21.8745C83.9812 21.8745 82.7567 21.4424 81.9541 20.578C81.1516 19.7137 80.7503 18.6127 80.7503 17.2751V9.49615H76.4286V5.94624H79.2377C79.9168 5.94624 80.4004 5.81247 80.6885 5.54494C80.9766 5.27741 81.1207 4.78351 81.1207 4.06324V0.328125H85.3188V5.94624H91.5235V9.49615H85.3188V18.3246H91.5235V21.8745H85.6275Z" fill="#FFCA36"/>
<path d="M31.1865 26.8713C30.8649 26.8713 30.6399 26.807 30.5112 26.6784C30.389 26.5434 30.328 26.3826 30.328 26.1961V25.9163C30.328 25.7234 30.389 25.5626 30.5112 25.434C30.6399 25.3054 30.8649 25.2411 31.1865 25.2411C31.508 25.2411 31.7299 25.3054 31.8521 25.434C31.9807 25.5626 32.045 25.7234 32.045 25.9163V26.1961C32.045 26.3826 31.9807 26.5434 31.8521 26.6784C31.7299 26.807 31.508 26.8713 31.1865 26.8713ZM28.8906 31.3763H30.4726V28.6174H28.8906V27.508H31.9003V31.3763H33.3666V32.4856H28.8906V31.3763Z" fill="white"/>
<path d="M36.0349 32.4856V27.508H37.4626V28.4148H37.5205C37.5783 28.2733 37.6491 28.1415 37.7327 28.0193C37.8163 27.8971 37.916 27.791 38.0317 27.7009C38.1539 27.6045 38.2922 27.5305 38.4465 27.4791C38.6073 27.4212 38.7874 27.3923 38.9867 27.3923C39.2247 27.3923 39.4433 27.4341 39.6427 27.5177C39.842 27.5948 40.0125 27.7138 40.154 27.8746C40.2954 28.0354 40.4048 28.2315 40.4819 28.463C40.5655 28.6945 40.6073 28.9614 40.6073 29.2637V32.4856H39.1797V29.4566C39.1797 28.8135 38.8999 28.492 38.3404 28.492C38.2311 28.492 38.1218 28.508 38.0124 28.5402C37.9095 28.5659 37.8163 28.6109 37.7327 28.6752C37.6491 28.7331 37.5816 28.8071 37.5301 28.8971C37.4851 28.9871 37.4626 29.0933 37.4626 29.2154V32.4856H36.0349Z" fill="white"/>
<path d="M44.877 32.4856L43.0924 27.508H44.5972L45.2435 29.6399L45.7162 31.2991H45.7934L46.2661 29.6399L46.9124 27.508H48.3593L46.5747 32.4856H44.877Z" fill="white"/>
<path d="M53.2849 32.6014C52.4489 32.6014 51.8154 32.3698 51.3846 31.9068C50.9537 31.4438 50.7383 30.8135 50.7383 30.0161C50.7383 29.6109 50.7929 29.2476 50.9022 28.926C51.018 28.5981 51.1788 28.3215 51.3846 28.0964C51.5968 27.8649 51.8508 27.6913 52.1466 27.5755C52.4489 27.4534 52.7865 27.3923 53.1595 27.3923C53.5325 27.3923 53.8669 27.4534 54.1628 27.5755C54.4586 27.6913 54.7094 27.8585 54.9152 28.0772C55.121 28.2958 55.2785 28.5627 55.3879 28.8778C55.5036 29.1865 55.5615 29.5338 55.5615 29.9196V30.3441H52.1563V30.4309C52.1563 30.7524 52.256 31.0129 52.4553 31.2123C52.6547 31.4052 52.9473 31.5017 53.3332 31.5017C53.629 31.5017 53.883 31.447 54.0952 31.3377C54.3075 31.2219 54.4907 31.0708 54.6451 30.8843L55.4168 31.7235C55.2239 31.9615 54.9538 32.1673 54.6065 32.3409C54.2592 32.5145 53.8187 32.6014 53.2849 32.6014ZM53.1692 28.4148C52.8605 28.4148 52.6129 28.5112 52.4264 28.7042C52.2463 28.8907 52.1563 29.1447 52.1563 29.4662V29.5434H54.1628V29.4662C54.1628 29.1383 54.0727 28.881 53.8927 28.6945C53.719 28.508 53.4779 28.4148 53.1692 28.4148Z" fill="white"/>
<path d="M60.516 32.6014C59.963 32.6014 59.4806 32.5178 59.0691 32.3505C58.6639 32.1833 58.3584 31.955 58.1526 31.6656L58.9533 30.9229C59.1462 31.1351 59.3713 31.3023 59.6285 31.4245C59.8922 31.5402 60.1913 31.5981 60.5257 31.5981C60.8086 31.5981 61.0305 31.5563 61.1913 31.4727C61.3521 31.3827 61.4324 31.2476 61.4324 31.0676C61.4324 30.9261 61.3778 30.8296 61.2685 30.7782C61.1591 30.7203 61.008 30.6753 60.8151 30.6431L60.0144 30.5177C59.7893 30.4856 59.5803 30.4373 59.3874 30.373C59.1945 30.3023 59.0273 30.209 58.8858 30.0933C58.7443 29.9775 58.6317 29.836 58.5481 29.6688C58.4645 29.5016 58.4227 29.299 58.4227 29.0611C58.4227 28.5402 58.6221 28.1318 59.0208 27.836C59.4195 27.5402 59.979 27.3923 60.6993 27.3923C61.1881 27.3923 61.6029 27.4598 61.9437 27.5948C62.291 27.7235 62.5675 27.91 62.7733 28.1543L62.0595 28.9646C61.9116 28.8039 61.7218 28.6688 61.4903 28.5595C61.2588 28.4502 60.9791 28.3955 60.6511 28.3955C60.098 28.3955 59.8215 28.5627 59.8215 28.8971C59.8215 29.045 59.8761 29.1479 59.9855 29.2058C60.0948 29.2572 60.2459 29.299 60.4389 29.3312L61.2299 29.4566C61.455 29.4888 61.664 29.5402 61.8569 29.6109C62.0498 29.6753 62.217 29.7653 62.3585 29.881C62.5064 29.9968 62.6222 30.1383 62.7058 30.3055C62.7894 30.4727 62.8312 30.6753 62.8312 30.9132C62.8312 31.4341 62.6286 31.8457 62.2235 32.148C61.8247 32.4502 61.2556 32.6014 60.516 32.6014Z" fill="white"/>
<path d="M68.3838 32.4856C67.8693 32.4856 67.4867 32.3505 67.2359 32.0804C66.9851 31.8103 66.8596 31.4663 66.8596 31.0483V28.6174H65.5091V27.508H66.387C66.5992 27.508 66.7503 27.4662 66.8404 27.3826C66.9304 27.299 66.9754 27.1447 66.9754 26.9196V25.7524H68.2873V27.508H70.2263V28.6174H68.2873V31.3763H70.2263V32.4856H68.3838Z" fill="white"/>
<path d="M75.7306 26.8713C75.4091 26.8713 75.184 26.807 75.0554 26.6784C74.9332 26.5434 74.8721 26.3826 74.8721 26.1961V25.9163C74.8721 25.7234 74.9332 25.5626 75.0554 25.434C75.184 25.3054 75.4091 25.2411 75.7306 25.2411C76.0522 25.2411 76.2741 25.3054 76.3963 25.434C76.5249 25.5626 76.5892 25.7234 76.5892 25.9163V26.1961C76.5892 26.3826 76.5249 26.5434 76.3963 26.6784C76.2741 26.807 76.0522 26.8713 75.7306 26.8713ZM73.4348 31.3763H75.0168V28.6174H73.4348V27.508H76.4445V31.3763H77.9108V32.4856H73.4348V31.3763Z" fill="white"/>
<path d="M80.5791 32.4856V27.508H82.0067V28.4148H82.0646C82.1225 28.2733 82.1932 28.1415 82.2768 28.0193C82.3604 27.8971 82.4601 27.791 82.5759 27.7009C82.6981 27.6045 82.8363 27.5305 82.9907 27.4791C83.1515 27.4212 83.3315 27.3923 83.5309 27.3923C83.7688 27.3923 83.9875 27.4341 84.1868 27.5177C84.3862 27.5948 84.5566 27.7138 84.6981 27.8746C84.8396 28.0354 84.9489 28.2315 85.0261 28.463C85.1097 28.6945 85.1515 28.9614 85.1515 29.2637V32.4856H83.7238V29.4566C83.7238 28.8135 83.4441 28.492 82.8846 28.492C82.7752 28.492 82.6659 28.508 82.5566 28.5402C82.4537 28.5659 82.3604 28.6109 82.2768 28.6752C82.1932 28.7331 82.1257 28.8071 82.0743 28.8971C82.0293 28.9871 82.0067 29.0933 82.0067 29.2154V32.4856H80.5791Z" fill="white"/>
<path d="M93 32.9872C93 33.5146 92.7781 33.9036 92.3344 34.1544C91.8906 34.4053 91.1929 34.5307 90.2411 34.5307C89.7652 34.5307 89.3729 34.5017 89.0642 34.4438C88.7555 34.3924 88.5079 34.3152 88.3214 34.2123C88.1413 34.1094 88.0127 33.9872 87.9356 33.8458C87.8648 33.7043 87.8294 33.5499 87.8294 33.3827C87.8294 33.0998 87.9131 32.8843 88.0803 32.7364C88.2475 32.5949 88.4822 32.4856 88.7845 32.4084V32.3505C88.5722 32.2862 88.4018 32.1962 88.2732 32.0804C88.151 31.9583 88.0899 31.7878 88.0899 31.5692C88.0899 31.3248 88.1703 31.1447 88.3311 31.029C88.4983 30.9132 88.7169 30.8232 88.987 30.7589V30.701C88.6912 30.5595 88.4597 30.3602 88.2925 30.1029C88.1317 29.8457 88.0513 29.5338 88.0513 29.1672C88.0513 28.8778 88.1028 28.6238 88.2057 28.4051C88.3086 28.1801 88.4533 27.9936 88.6398 27.8456C88.8327 27.6977 89.061 27.5852 89.3246 27.508C89.5883 27.4308 89.8842 27.3923 90.2121 27.3923C90.5273 27.3923 90.8199 27.4276 91.09 27.4984V27.2283C91.09 27.0353 91.1575 26.8746 91.2925 26.7459C91.4276 26.6173 91.6141 26.553 91.852 26.553H92.7299V27.5948H91.5337V27.6816C91.8038 27.8231 92.0128 28.0193 92.1607 28.2701C92.3151 28.5145 92.3922 28.8135 92.3922 29.1672C92.3922 29.4566 92.3408 29.7106 92.2379 29.9293C92.135 30.1479 91.9871 30.3344 91.7942 30.4888C91.6012 30.6367 91.3697 30.7492 91.0996 30.8264C90.8359 30.9036 90.5401 30.9422 90.2121 30.9422C90.0642 30.9422 89.9227 30.9357 89.7877 30.9229C89.6526 30.9036 89.524 30.8779 89.4018 30.8457C89.3311 30.8843 89.27 30.9325 89.2185 30.9904C89.1735 31.0483 89.151 31.1222 89.151 31.2123C89.151 31.2894 89.1703 31.3505 89.2089 31.3955C89.2475 31.4406 89.2989 31.4759 89.3632 31.5017C89.434 31.521 89.5144 31.5338 89.6044 31.5402C89.6944 31.5467 89.7877 31.5499 89.8841 31.5499H91.0224C91.3761 31.5499 91.6784 31.5853 91.9292 31.656C92.18 31.7267 92.3858 31.8264 92.5466 31.955C92.7074 32.0837 92.8231 32.2348 92.8939 32.4084C92.9646 32.5821 93 32.775 93 32.9872ZM91.6495 33.0933C91.6495 32.9647 91.598 32.8618 91.4951 32.7846C91.3922 32.7139 91.1961 32.6785 90.9067 32.6785H89.1992C89.0706 32.7879 89.0063 32.9229 89.0063 33.0837C89.0063 33.238 89.0706 33.3634 89.1992 33.4599C89.3343 33.5628 89.5594 33.6142 89.8745 33.6142H90.7137C91.0417 33.6142 91.2797 33.5692 91.4276 33.4792C91.5755 33.3892 91.6495 33.2605 91.6495 33.0933ZM90.2121 30.0354C90.5015 30.0354 90.7105 29.9647 90.8392 29.8232C90.9742 29.6817 91.0417 29.5016 91.0417 29.283V29.0515C91.0417 28.8328 90.9742 28.6527 90.8392 28.5112C90.7105 28.3698 90.5015 28.299 90.2121 28.299C89.9292 28.299 89.7234 28.3698 89.5948 28.5112C89.4661 28.6527 89.4018 28.8328 89.4018 29.0515V29.283C89.4018 29.5016 89.4661 29.6817 89.5948 29.8232C89.7234 29.9647 89.9292 30.0354 90.2121 30.0354Z" fill="white"/>
</svg>
