<svg width="14" height="9" viewBox="0 0 14 9" fill="none" xmlns="http://www.w3.org/2000/svg">
<path d="M7.89684 4.267C7.89684 6.46659 6.12905 8.24969 3.94849 8.24969C1.76792 8.24969 0 6.46618 0 4.267C0 2.06782 1.76779 0.28418 3.94849 0.28418C6.12918 0.28418 7.89684 2.06742 7.89684 4.267Z" fill="white"/>
<path d="M12.2283 4.26807C12.2283 6.33851 11.3444 8.01759 10.254 8.01759C9.16368 8.01759 8.27979 6.33851 8.27979 4.26807C8.27979 2.19764 9.16355 0.518555 10.2539 0.518555C11.3442 0.518555 12.2281 2.1971 12.2281 4.26807" fill="white"/>
<path d="M14 4.26816C14 6.12276 13.6892 7.62714 13.3057 7.62714C12.9221 7.62714 12.6115 6.12316 12.6115 4.26816C12.6115 2.41315 12.9223 0.90918 13.3057 0.90918C13.6891 0.90918 14 2.41302 14 4.26816Z" fill="white"/>
</svg>
