<svg width="14" height="12" viewBox="0 0 14 12" fill="none" xmlns="http://www.w3.org/2000/svg">
<path fill-rule="evenodd" clip-rule="evenodd" d="M1.43189 4.87393C4.93014 3.34981 7.26285 2.34501 8.43003 1.85954C11.7626 0.473427 12.455 0.232645 12.9064 0.224694C13.0056 0.222945 13.2276 0.247547 13.3714 0.36421C13.4928 0.462718 13.5262 0.595788 13.5422 0.689185C13.5581 0.782581 13.578 0.99534 13.5622 1.16158C13.3816 3.05907 12.6002 7.66375 12.2027 9.78896C12.0345 10.6882 11.7032 10.9897 11.3826 11.0192C10.6857 11.0834 10.1566 10.5587 9.48161 10.1163C8.42546 9.42395 7.8288 8.99298 6.80361 8.3174C5.61884 7.53665 6.38688 7.10754 7.06208 6.40625C7.23878 6.22272 10.3092 3.42996 10.3686 3.17661C10.376 3.14493 10.3829 3.02682 10.3128 2.96446C10.2426 2.90209 10.139 2.92342 10.0643 2.94038C9.95838 2.96442 8.27116 4.07961 5.00264 6.28595C4.52373 6.61481 4.08994 6.77504 3.70129 6.76664C3.27283 6.75738 2.44864 6.52438 1.83594 6.32522C1.08444 6.08094 0.487158 5.95178 0.539168 5.53691C0.566258 5.32082 0.863833 5.09983 1.43189 4.87393Z" fill="white"/>
</svg>
