<svg width="12" height="11" viewBox="0 0 12 11" fill="none" xmlns="http://www.w3.org/2000/svg">
<path fill-rule="evenodd" clip-rule="evenodd" d="M5.6406 2.95609L5.66578 3.37132L5.2461 3.32048C3.71843 3.12557 2.38383 2.4646 1.25067 1.3545L0.696681 0.803692L0.553988 1.21045C0.251813 2.11717 0.444869 3.07473 1.0744 3.71876C1.41015 4.07467 1.33461 4.12551 0.755438 3.91366C0.553988 3.84587 0.377719 3.79502 0.360931 3.82044C0.302175 3.87976 0.503625 4.6509 0.663106 4.95596C0.881344 5.37966 1.32621 5.79489 1.81305 6.04064L2.22434 6.23554L1.73751 6.24401C1.26746 6.24401 1.25067 6.25249 1.30103 6.43044C1.46891 6.98125 2.13201 7.56596 2.87066 7.82018L3.39108 7.99814L2.93781 8.26931C2.26631 8.65911 1.4773 8.87944 0.688288 8.89638C0.310569 8.90486 0 8.93875 0 8.96418C0 9.04892 1.02404 9.52346 1.61999 9.70989C3.40786 10.2607 5.53148 10.0234 7.1263 9.08281C8.25945 8.41336 9.39261 7.08294 9.92142 5.79489C10.2068 5.1085 10.4922 3.85434 10.4922 3.25268C10.4922 2.86288 10.5174 2.81204 10.9874 2.34596C11.2644 2.0748 11.5246 1.77821 11.575 1.69346C11.6589 1.53246 11.6505 1.53246 11.2224 1.67652C10.509 1.93074 10.4083 1.89684 10.7608 1.51551C11.021 1.24434 11.3316 0.752848 11.3316 0.60879C11.3316 0.583368 11.2057 0.625738 11.063 0.702004C10.9119 0.786744 10.5761 0.913855 10.3243 0.990121L9.87105 1.13418L9.45976 0.854537C9.23313 0.702004 8.91417 0.532524 8.74629 0.48168C8.31821 0.363043 7.6635 0.379991 7.27738 0.515576C6.22816 0.896907 5.56506 1.87989 5.6406 2.95609Z" fill="#F4F5F7"/>
</svg>
