<svg width="32" height="32" viewBox="0 0 32 32" fill="none" xmlns="http://www.w3.org/2000/svg">
<path d="M9.33333 20.0002C10.0697 20.0002 10.6667 19.4032 10.6667 18.6668C10.6667 17.9304 10.0697 17.3335 9.33333 17.3335C8.59696 17.3335 8 17.9304 8 18.6668C8 19.4032 8.59696 20.0002 9.33333 20.0002Z" fill="#6BE7A5" stroke="#6BE7A5" stroke-width="2" stroke-linecap="round" stroke-linejoin="round"/>
<path d="M2.66675 11.9998H29.3334M2.66675 11.9998V7.4665C2.66675 7.02468 3.02492 6.6665 3.46675 6.6665H28.5334C28.9753 6.6665 29.3334 7.02468 29.3334 7.4665V11.9998H2.66675ZM2.66675 11.9998V24.5332C2.66675 24.975 3.02492 25.3332 3.46675 25.3332H28.5334C28.9753 25.3332 29.3334 24.975 29.3334 24.5332V11.9998H2.66675Z" stroke="#6BE7A5" stroke-width="2" stroke-linecap="round" stroke-linejoin="round"/>
</svg>
