<svg width="32" height="32" viewBox="0 0 32 32" fill="none" xmlns="http://www.w3.org/2000/svg">
<path d="M8.66667 22.3049V25.3332M13.3333 10.9742C12.2678 9.99061 10.3913 9.30648 8.66667 9.26364L13.3333 10.9742ZM4 20.3076C5.00252 21.5414 6.86653 22.2452 8.66667 22.3049L4 20.3076ZM8.66667 9.26364C6.61469 9.21266 4.77777 10.0696 4.77777 12.4101C4.77777 16.7178 13.3333 14.564 13.3333 18.8716C13.3333 21.3285 11.0563 22.3841 8.66667 22.3049V9.26364ZM8.66667 9.26364V6.6665V9.26364Z" stroke="#7965F4" stroke-width="2" stroke-linecap="round" stroke-linejoin="round"/>
<path d="M28 15.9998L22.88 21.3332M17.3334 15.9998H28H17.3334ZM28 15.9998L22.88 10.6665L28 15.9998Z" stroke="#7965F4" stroke-width="2" stroke-linecap="round" stroke-linejoin="round"/>
</svg>
