<svg width="32" height="32" viewBox="0 0 32 32" fill="none" xmlns="http://www.w3.org/2000/svg">
<path d="M16 14.6665H19.3333H22.6667" stroke="#F46565" stroke-width="2" stroke-linecap="round" stroke-linejoin="round"/>
<path d="M16 9.3335H19.3333H22.6667" stroke="#F46565" stroke-width="2" stroke-linecap="round" stroke-linejoin="round"/>
<path d="M10.6667 20V4.8C10.6667 4.35817 11.0249 4 11.4667 4H27.2001C27.6419 4 28.0001 4.35817 28.0001 4.8V22.6667C28.0001 25.6121 25.6122 28 22.6667 28" stroke="#F46565" stroke-width="2" stroke-linecap="round" stroke-linejoin="round"/>
<path d="M6.66667 20H10.6667H16.5333C16.9752 20 17.3375 20.3557 17.3731 20.7961C17.5368 22.8196 18.3749 28 22.6667 28H10.6667H8C5.79087 28 4 26.2092 4 24V22.6667C4 21.1939 5.19391 20 6.66667 20Z" stroke="#F46565" stroke-width="2" stroke-linecap="round" stroke-linejoin="round"/>
</svg>
