<svg width="32" height="32" viewBox="0 0 32 32" fill="none" xmlns="http://www.w3.org/2000/svg">
<path d="M19.3333 11.3332C18.2923 11.0633 16.8458 10.6665 15.6862 10.6665C9.9684 10.6665 5.33325 14.2233 5.33325 18.6109C5.33325 21.1322 6.86384 23.3792 9.25091 24.8346L8.60416 26.9677C8.44839 27.4814 8.83287 27.9998 9.36973 27.9998H11.7219C11.8951 27.9998 12.0636 27.9437 12.2021 27.8397L14.0615 26.4442H17.3107L19.1702 27.8397C19.3087 27.9437 19.4773 27.9998 19.6505 27.9998H22.0026C22.5394 27.9998 22.9239 27.4814 22.7681 26.9677L22.1214 24.8346C23.5435 23.9676 24.6617 22.8194 25.3333 21.4998" stroke="#F4B265" stroke-width="2" stroke-linecap="round" stroke-linejoin="round"/>
<path d="M19.3333 11.3335L25.3333 9.3335L25.2213 14.1712L27.9999 15.3335V20.0002L25.4321 21.3335" stroke="#F4B265" stroke-width="2" stroke-linecap="round" stroke-linejoin="round"/>
<path d="M20.6667 17.3333C20.2985 17.3333 20 17.0348 20 16.6667C20 16.2985 20.2985 16 20.6667 16C21.0348 16 21.3333 16.2985 21.3333 16.6667C21.3333 17.0348 21.0348 17.3333 20.6667 17.3333Z" fill="#F4B265" stroke="#F4B265" stroke-width="2" stroke-linecap="round" stroke-linejoin="round"/>
<path d="M2.66675 13.3335C2.66675 13.3335 2.66675 16.5335 5.33341 17.3335" stroke="#F4B265" stroke-width="2" stroke-linecap="round" stroke-linejoin="round"/>
<path d="M17.0677 10.3373C17.2397 9.84175 17.3333 9.30848 17.3333 8.75296C17.3333 6.12797 15.244 4 12.6667 4C10.0893 4 8 6.12797 8 8.75296C8 10.0085 8.47799 11.1503 9.25872 12" stroke="#F4B265" stroke-width="2" stroke-linejoin="round"/>
</svg>
