<svg width="1439" height="1027" viewBox="0 0 1439 1027" fill="none" xmlns="http://www.w3.org/2000/svg">
<mask id="mask0" mask-type="alpha" maskUnits="userSpaceOnUse" x="0" y="0" width="1440" height="1027">
<rect width="1440" height="1027" fill="#C4C4C4"/>
</mask>
<g mask="url(#mask0)">
<path opacity="0.1" fill-rule="evenodd" clip-rule="evenodd" d="M226.817 260.816H1213.18V1029.18H833.541C831.628 1090.23 781.536 1139.14 720.022 1139.14C658.507 1139.14 608.415 1090.23 606.502 1029.18H226.817V260.816ZM610.871 1029.18C612.782 1087.82 660.919 1134.77 720.022 1134.77C779.124 1134.77 827.261 1087.82 829.172 1029.18H729.341C727.887 1032.91 724.257 1035.56 720.022 1035.56C715.787 1035.56 712.158 1032.91 710.703 1029.18H610.871ZM715.717 1029.18C716.752 1030.41 718.299 1031.19 720.022 1031.19C721.745 1031.19 723.293 1030.41 724.327 1029.18H715.717ZM1208.82 1023.3V265.183H902.895V410.003H803.84C803.784 410.059 803.724 410.118 803.66 410.181C803.099 410.732 802.271 411.521 801.189 412.494C799.024 414.439 795.836 417.12 791.714 420.094C783.476 426.039 771.474 433.18 756.426 437.944C726.339 447.469 684.353 447.393 636.366 410.003H537.121V265.183H285.951C287.196 279.133 284.565 289.873 279.707 298.101C274.631 306.699 267.235 312.365 259.728 316.094C252.231 319.818 244.558 321.644 238.79 322.544C235.899 322.995 233.468 323.216 231.753 323.324C231.553 323.337 231.363 323.348 231.183 323.357V1023.3H606.468C607.673 961.617 658.051 911.986 720.022 911.986C781.992 911.986 832.37 961.617 833.575 1023.3H1208.82ZM829.208 1023.3C828.003 964.029 779.58 916.352 720.022 916.352C660.463 916.352 612.04 964.029 610.836 1023.3H710.281C711.301 1018.88 715.249 1015.56 720.022 1015.56C724.756 1015.56 728.733 1018.87 729.761 1023.3H829.208ZM231.183 318.984C231.279 318.978 231.377 318.972 231.477 318.966C233.081 318.865 235.377 318.656 238.117 318.229C243.61 317.372 250.815 315.645 257.786 312.183C264.746 308.725 271.406 303.572 275.947 295.881C280.315 288.482 282.827 278.559 281.566 265.183H231.183V318.984ZM541.487 265.281V405.636H898.528V265.281H826.983V346.03H613.028V265.281H541.487ZM617.394 265.281V341.663H822.616V265.281H617.394ZM643.599 410.003C688.493 443.021 727.289 442.588 755.108 433.781C769.607 429.191 781.195 422.301 789.159 416.553C792.622 414.054 795.394 411.775 797.416 410.003H643.599ZM1148.3 265.499C1148.3 265.499 1148.3 265.496 1150.48 265.507C1152.67 265.519 1152.67 265.517 1152.67 265.517V265.546C1152.67 265.57 1152.67 265.608 1152.67 265.66C1152.67 265.764 1152.67 265.924 1152.68 266.134C1152.69 266.556 1152.71 267.183 1152.76 267.985C1152.86 269.588 1153.07 271.884 1153.5 274.624C1154.35 280.117 1156.08 287.323 1159.54 294.293C1163 301.253 1168.15 307.913 1175.85 312.454C1183.52 316.984 1193.91 319.518 1208.05 317.918L1208.54 322.257C1193.61 323.946 1182.24 321.301 1173.63 316.214C1165.03 311.138 1159.36 303.742 1155.63 296.235C1151.91 288.738 1150.08 281.065 1149.18 275.297C1148.73 272.406 1148.51 269.975 1148.4 268.26C1148.35 267.402 1148.32 266.721 1148.31 266.25C1148.3 266.015 1148.3 265.832 1148.3 265.705C1148.3 265.641 1148.3 265.592 1148.3 265.557V265.503L1148.3 265.499Z" fill="url(#paint0_linear)"/>
</g>
<defs>
<linearGradient id="paint0_linear" x1="720" y1="260.816" x2="720" y2="1026.5" gradientUnits="userSpaceOnUse">
<stop stop-color="white"/>
<stop offset="1" stop-color="white" stop-opacity="0"/>
</linearGradient>
</defs>
</svg>
