<svg width="1439" height="1027" fill="none" xmlns="http://www.w3.org/2000/svg"><mask id="a" maskUnits="userSpaceOnUse" x="0" y="0" width="1440" height="1027"><path fill="#C4C4C4" d="M0 0h1440v1027H0z"/></mask><g mask="url(#a)"><path opacity=".1" fill-rule="evenodd" clip-rule="evenodd" d="M226.817 260.816h986.363v768.364H833.541c-1.913 61.05-52.005 109.96-113.519 109.96-61.515 0-111.607-48.91-113.52-109.96H226.817V260.816zm384.054 768.364c1.911 58.64 50.048 105.59 109.151 105.59 59.102 0 107.239-46.95 109.15-105.59h-99.831c-1.454 3.73-5.084 6.38-9.319 6.38-4.235 0-7.864-2.65-9.319-6.38h-99.832zm104.846 0a5.616 5.616 0 008.61 0h-8.61zm493.103-5.88V265.183H902.895v144.82H803.84l-.18.178a77.89 77.89 0 01-2.471 2.313c-2.165 1.945-5.353 4.626-9.475 7.6-8.238 5.945-20.24 13.086-35.288 17.85-30.087 9.525-72.073 9.449-120.06-27.941h-99.245v-144.82h-251.17c1.245 13.95-1.386 24.69-6.244 32.918-5.076 8.598-12.472 14.264-19.979 17.993-7.497 3.724-15.17 5.55-20.938 6.45a77.807 77.807 0 01-7.607.813V1023.3h375.285c1.205-61.683 51.583-111.314 113.554-111.314 61.97 0 112.348 49.631 113.553 111.314h375.245zm-379.612 0c-1.205-59.271-49.628-106.948-109.186-106.948-59.559 0-107.982 47.677-109.186 106.948h99.445c1.02-4.42 4.968-7.74 9.741-7.74 4.734 0 8.711 3.31 9.739 7.74h99.447zM231.183 318.984l.294-.018c1.604-.101 3.9-.31 6.64-.737 5.493-.857 12.698-2.584 19.669-6.046 6.96-3.458 13.62-8.611 18.161-16.302 4.368-7.399 6.88-17.322 5.619-30.698h-50.383v53.801zm310.304-53.703v140.355h357.041V265.281h-71.545v80.749H613.028v-80.749h-71.541zm75.907 0v76.382h205.222v-76.382H617.394zm26.205 144.722c44.894 33.018 83.69 32.585 111.509 23.778 14.499-4.59 26.087-11.48 34.051-17.228a112.21 112.21 0 008.257-6.55H643.599zM1148.3 265.499s0-.003 2.18.008c2.19.012 2.19.01 2.19.01v.143c0 .104 0 .264.01.474.01.422.03 1.049.08 1.851.1 1.603.31 3.899.74 6.639.85 5.493 2.58 12.699 6.04 19.669 3.46 6.96 8.61 13.62 16.31 18.161 7.67 4.53 18.06 7.064 32.2 5.464l.49 4.339c-14.93 1.689-26.3-.956-34.91-6.043-8.6-5.076-14.27-12.472-18-19.979-3.72-7.497-5.55-15.17-6.45-20.938a78.92 78.92 0 01-.78-7.037c-.05-.858-.08-1.539-.09-2.01-.01-.235-.01-.418-.01-.545v-.206z" fill="url(#paint0_linear)"/></g><defs><linearGradient id="paint0_linear" x1="720" y1="260.816" x2="720" y2="1026.5" gradientUnits="userSpaceOnUse"><stop stop-color="#fff"/><stop offset="1" stop-color="#fff" stop-opacity="0"/></linearGradient></defs></svg>